<svg id="visual" viewBox="0 0 900 600" width="900" height="600" xmlns="http://www.w3.org/2000/svg" xmlns:xlink="http://www.w3.org/1999/xlink" version="1.1"><g stroke-width="1" stroke-linejoin="bevel"><path d="M451 326L475 349L523.3 300Z" fill="#474668" stroke="#474668"></path><path d="M465 437L500.3 384L475 349Z" fill="#141b24" stroke="#141b24"></path><path d="M475 349L500.3 384L523.3 300Z" fill="#504b70" stroke="#504b70"></path><path d="M523.3 300L471 234L451 326Z" fill="#1d2635" stroke="#1d2635"></path><path d="M523.3 300L485.3 222L471 234Z" fill="#504b70" stroke="#504b70"></path><path d="M574.6 377L589.6 281L523.3 300Z" fill="#3e415f" stroke="#3e415f"></path><path d="M523.3 300L530.3 204L485.3 222Z" fill="#141b24" stroke="#141b24"></path><path d="M500.3 384L574.6 377L523.3 300Z" fill="#2f364f" stroke="#2f364f"></path><path d="M366.7 286L379.7 341L451 326Z" fill="#2f364f" stroke="#2f364f"></path><path d="M451 326L379.7 341L475 349Z" fill="#504b70" stroke="#504b70"></path><path d="M465 437L528.3 418L500.3 384Z" fill="#141b24" stroke="#141b24"></path><path d="M500.3 384L528.3 418L574.6 377Z" fill="#363c57" stroke="#363c57"></path><path d="M564.6 216L530.3 204L523.3 300Z" fill="#222c3d" stroke="#222c3d"></path><path d="M396.7 203L394.7 236L471 234Z" fill="#2f364f" stroke="#2f364f"></path><path d="M471 234L394.7 236L451 326Z" fill="#10161c" stroke="#10161c"></path><path d="M456 181L471 234L485.3 222Z" fill="#504b70" stroke="#504b70"></path><path d="M394.7 236L366.7 286L451 326Z" fill="#504b70" stroke="#504b70"></path><path d="M589.6 281L564.6 216L523.3 300Z" fill="#222c3d" stroke="#222c3d"></path><path d="M379.7 341L465 437L475 349Z" fill="#363c57" stroke="#363c57"></path><path d="M530.3 204L456 181L485.3 222Z" fill="#363c57" stroke="#363c57"></path><path d="M604.6 421L622.9 345L574.6 377Z" fill="#18212c" stroke="#18212c"></path><path d="M574.6 377L622.9 345L589.6 281Z" fill="#3e415f" stroke="#3e415f"></path><path d="M589.6 281L649.9 255L564.6 216Z" fill="#1d2635" stroke="#1d2635"></path><path d="M456 181L396.7 203L471 234Z" fill="#474668" stroke="#474668"></path><path d="M394.7 236L346.4 256L366.7 286Z" fill="#363c57" stroke="#363c57"></path><path d="M465 437L501.3 455L528.3 418Z" fill="#3e415f" stroke="#3e415f"></path><path d="M528.3 418L604.6 421L574.6 377Z" fill="#141b24" stroke="#141b24"></path><path d="M396.7 203L346.4 256L394.7 236Z" fill="#10161c" stroke="#10161c"></path><path d="M366.7 286L334.4 304L379.7 341Z" fill="#1d2635" stroke="#1d2635"></path><path d="M346.4 256L334.4 304L366.7 286Z" fill="#10161c" stroke="#10161c"></path><path d="M409.7 467L437 468L465 437Z" fill="#283146" stroke="#283146"></path><path d="M569.6 457L604.6 421L528.3 418Z" fill="#283146" stroke="#283146"></path><path d="M409.7 467L465 437L361.7 435Z" fill="#222c3d" stroke="#222c3d"></path><path d="M465 437L437 468L501.3 455Z" fill="#141b24" stroke="#141b24"></path><path d="M501.3 455L569.6 457L528.3 418Z" fill="#141b24" stroke="#141b24"></path><path d="M521.3 545L569.6 457L501.3 455Z" fill="#1d2635" stroke="#1d2635"></path><path d="M361.7 435L465 437L379.7 341Z" fill="#2f364f" stroke="#2f364f"></path><path d="M659.9 286L589.6 281L622.9 345Z" fill="#474668" stroke="#474668"></path><path d="M659.9 286L649.9 255L589.6 281Z" fill="#222c3d" stroke="#222c3d"></path><path d="M564.6 216L568.6 160L530.3 204Z" fill="#222c3d" stroke="#222c3d"></path><path d="M530.3 204L472 136L456 181Z" fill="#2f364f" stroke="#2f364f"></path><path d="M621.9 192L568.6 160L564.6 216Z" fill="#363c57" stroke="#363c57"></path><path d="M723.1 324L659.9 286L622.9 345Z" fill="#141b24" stroke="#141b24"></path><path d="M324.4 418L361.7 435L379.7 341Z" fill="#1d2635" stroke="#1d2635"></path><path d="M525.3 129L472 136L530.3 204Z" fill="#504b70" stroke="#504b70"></path><path d="M456 181L359.7 139L396.7 203Z" fill="#504b70" stroke="#504b70"></path><path d="M649.9 255L621.9 192L564.6 216Z" fill="#10161c" stroke="#10161c"></path><path d="M266.1 296L304.4 351L334.4 304Z" fill="#3e415f" stroke="#3e415f"></path><path d="M334.4 304L304.4 351L379.7 341Z" fill="#474668" stroke="#474668"></path><path d="M601.6 115L525.3 129L568.6 160Z" fill="#474668" stroke="#474668"></path><path d="M568.6 160L525.3 129L530.3 204Z" fill="#3e415f" stroke="#3e415f"></path><path d="M304.4 351L324.4 418L379.7 341Z" fill="#18212c" stroke="#18212c"></path><path d="M361.7 435L347.4 458L409.7 467Z" fill="#141b24" stroke="#141b24"></path><path d="M630.9 483L652.9 423L604.6 421Z" fill="#2f364f" stroke="#2f364f"></path><path d="M604.6 421L652.9 423L622.9 345Z" fill="#3e415f" stroke="#3e415f"></path><path d="M324.4 418L347.4 458L361.7 435Z" fill="#283146" stroke="#283146"></path><path d="M659.9 286L682.1 254L649.9 255Z" fill="#222c3d" stroke="#222c3d"></path><path d="M649.9 255L678.1 186L621.9 192Z" fill="#474668" stroke="#474668"></path><path d="M723.1 324L682.1 254L659.9 286Z" fill="#141b24" stroke="#141b24"></path><path d="M403.7 536L437 468L409.7 467Z" fill="#2f364f" stroke="#2f364f"></path><path d="M403.7 536L470 524L437 468Z" fill="#222c3d" stroke="#222c3d"></path><path d="M437 468L470 524L501.3 455Z" fill="#10161c" stroke="#10161c"></path><path d="M569.6 457L630.9 483L604.6 421Z" fill="#141b24" stroke="#141b24"></path><path d="M472 136L359.7 139L456 181Z" fill="#1d2635" stroke="#1d2635"></path><path d="M396.7 203L338.4 153L346.4 256Z" fill="#3e415f" stroke="#3e415f"></path><path d="M346.4 256L266.1 296L334.4 304Z" fill="#283146" stroke="#283146"></path><path d="M378.7 78L359.7 139L472 136Z" fill="#3e415f" stroke="#3e415f"></path><path d="M359.7 139L338.4 153L396.7 203Z" fill="#2f364f" stroke="#2f364f"></path><path d="M274.1 194L266.1 296L346.4 256Z" fill="#474668" stroke="#474668"></path><path d="M304.4 351L244.1 401L324.4 418Z" fill="#504b70" stroke="#504b70"></path><path d="M580.6 566L630.9 483L569.6 457Z" fill="#3e415f" stroke="#3e415f"></path><path d="M665.9 113L601.6 115L621.9 192Z" fill="#363c57" stroke="#363c57"></path><path d="M621.9 192L601.6 115L568.6 160Z" fill="#363c57" stroke="#363c57"></path><path d="M525.3 129L487.3 73L472 136Z" fill="#10161c" stroke="#10161c"></path><path d="M682.1 254L678.1 186L649.9 255Z" fill="#1d2635" stroke="#1d2635"></path><path d="M470 524L521.3 545L501.3 455Z" fill="#283146" stroke="#283146"></path><path d="M724.1 402L622.9 345L652.9 423Z" fill="#3e415f" stroke="#3e415f"></path><path d="M735.1 369L723.1 324L622.9 345Z" fill="#10161c" stroke="#10161c"></path><path d="M682.1 254L768.4 242L678.1 186Z" fill="#474668" stroke="#474668"></path><path d="M347.4 458L403.7 536L409.7 467Z" fill="#474668" stroke="#474668"></path><path d="M470 524L474 600L521.3 545Z" fill="#1d2635" stroke="#1d2635"></path><path d="M559.6 63L487.3 73L525.3 129Z" fill="#363c57" stroke="#363c57"></path><path d="M266.1 296L246.1 345L304.4 351Z" fill="#363c57" stroke="#363c57"></path><path d="M324.4 418L265.1 506L347.4 458Z" fill="#3e415f" stroke="#3e415f"></path><path d="M347.4 458L337.4 538L403.7 536Z" fill="#18212c" stroke="#18212c"></path><path d="M313.4 103L274.1 194L338.4 153Z" fill="#363c57" stroke="#363c57"></path><path d="M338.4 153L274.1 194L346.4 256Z" fill="#10161c" stroke="#10161c"></path><path d="M266.1 296L186.9 281L246.1 345Z" fill="#283146" stroke="#283146"></path><path d="M697.1 480L724.1 402L652.9 423Z" fill="#504b70" stroke="#504b70"></path><path d="M724.1 402L735.1 369L622.9 345Z" fill="#283146" stroke="#283146"></path><path d="M471 53L378.7 78L472 136Z" fill="#3e415f" stroke="#3e415f"></path><path d="M359.7 139L313.4 103L338.4 153Z" fill="#2f364f" stroke="#2f364f"></path><path d="M246.1 345L244.1 401L304.4 351Z" fill="#1d2635" stroke="#1d2635"></path><path d="M601.6 115L559.6 63L525.3 129Z" fill="#141b24" stroke="#141b24"></path><path d="M487.3 73L471 53L472 136Z" fill="#18212c" stroke="#18212c"></path><path d="M644.9 74L559.6 63L601.6 115Z" fill="#1d2635" stroke="#1d2635"></path><path d="M524.3 0L471 53L487.3 73Z" fill="#10161c" stroke="#10161c"></path><path d="M207.9 152L243.1 219L274.1 194Z" fill="#283146" stroke="#283146"></path><path d="M274.1 194L243.1 219L266.1 296Z" fill="#10161c" stroke="#10161c"></path><path d="M180.9 368L206.9 420L244.1 401Z" fill="#283146" stroke="#283146"></path><path d="M724.1 101L665.9 113L678.1 186Z" fill="#363c57" stroke="#363c57"></path><path d="M678.1 186L665.9 113L621.9 192Z" fill="#10161c" stroke="#10161c"></path><path d="M630.9 483L697.1 480L652.9 423Z" fill="#222c3d" stroke="#222c3d"></path><path d="M657.9 543L697.1 480L630.9 483Z" fill="#141b24" stroke="#141b24"></path><path d="M530.3 600L580.6 566L521.3 545Z" fill="#474668" stroke="#474668"></path><path d="M521.3 545L580.6 566L569.6 457Z" fill="#504b70" stroke="#504b70"></path><path d="M265.1 506L337.4 538L347.4 458Z" fill="#222c3d" stroke="#222c3d"></path><path d="M403.7 536L474 600L470 524Z" fill="#504b70" stroke="#504b70"></path><path d="M378.7 78L313.4 103L359.7 139Z" fill="#363c57" stroke="#363c57"></path><path d="M665.9 113L644.9 74L601.6 115Z" fill="#2f364f" stroke="#2f364f"></path><path d="M775.4 373L772.4 285L723.1 324Z" fill="#18212c" stroke="#18212c"></path><path d="M723.1 324L772.4 285L682.1 254Z" fill="#3e415f" stroke="#3e415f"></path><path d="M665.9 113L685.1 65L644.9 74Z" fill="#10161c" stroke="#10161c"></path><path d="M775.4 373L723.1 324L735.1 369Z" fill="#222c3d" stroke="#222c3d"></path><path d="M775.4 373L735.1 369L724.1 402Z" fill="#363c57" stroke="#363c57"></path><path d="M697.1 480L746.4 435L724.1 402Z" fill="#363c57" stroke="#363c57"></path><path d="M580.6 566L657.9 543L630.9 483Z" fill="#2f364f" stroke="#2f364f"></path><path d="M697.1 480L747.4 464L746.4 435Z" fill="#18212c" stroke="#18212c"></path><path d="M378.7 600L474 600L403.7 536Z" fill="#10161c" stroke="#10161c"></path><path d="M580.6 566L635.9 600L657.9 543Z" fill="#474668" stroke="#474668"></path><path d="M772.4 285L768.4 242L682.1 254Z" fill="#283146" stroke="#283146"></path><path d="M474 600L530.3 600L521.3 545Z" fill="#10161c" stroke="#10161c"></path><path d="M378.7 78L327.4 66L313.4 103Z" fill="#504b70" stroke="#504b70"></path><path d="M146.6 218L173.9 268L243.1 219Z" fill="#474668" stroke="#474668"></path><path d="M369.7 0L327.4 66L378.7 78Z" fill="#1d2635" stroke="#1d2635"></path><path d="M244.1 401L265.1 506L324.4 418Z" fill="#283146" stroke="#283146"></path><path d="M337.4 538L378.7 600L403.7 536Z" fill="#474668" stroke="#474668"></path><path d="M746.4 435L775.4 373L724.1 402Z" fill="#141b24" stroke="#141b24"></path><path d="M180.9 368L244.1 401L246.1 345Z" fill="#504b70" stroke="#504b70"></path><path d="M244.1 401L206.9 420L265.1 506Z" fill="#474668" stroke="#474668"></path><path d="M752.4 545L747.4 464L697.1 480Z" fill="#18212c" stroke="#18212c"></path><path d="M746.4 435L826.7 417L775.4 373Z" fill="#1d2635" stroke="#1d2635"></path><path d="M173.9 268L186.9 281L243.1 219Z" fill="#363c57" stroke="#363c57"></path><path d="M243.1 219L186.9 281L266.1 296Z" fill="#18212c" stroke="#18212c"></path><path d="M530.3 600L586.6 600L580.6 566Z" fill="#2f364f" stroke="#2f364f"></path><path d="M301.4 600L378.7 600L337.4 538Z" fill="#18212c" stroke="#18212c"></path><path d="M186.9 281L180.9 368L246.1 345Z" fill="#1d2635" stroke="#1d2635"></path><path d="M559.6 63L524.3 0L487.3 73Z" fill="#363c57" stroke="#363c57"></path><path d="M471 53L428 0L378.7 78Z" fill="#18212c" stroke="#18212c"></path><path d="M585.6 0L524.3 0L559.6 63Z" fill="#363c57" stroke="#363c57"></path><path d="M207.9 152L274.1 194L238.1 108Z" fill="#141b24" stroke="#141b24"></path><path d="M186.9 281L136.6 291L180.9 368Z" fill="#3e415f" stroke="#3e415f"></path><path d="M724.1 101L685.1 65L665.9 113Z" fill="#18212c" stroke="#18212c"></path><path d="M618.9 0L585.6 0L559.6 63Z" fill="#18212c" stroke="#18212c"></path><path d="M784.4 182L755.4 143L678.1 186Z" fill="#363c57" stroke="#363c57"></path><path d="M755.4 143L724.1 101L678.1 186Z" fill="#3e415f" stroke="#3e415f"></path><path d="M524.3 0L428 0L471 53Z" fill="#141b24" stroke="#141b24"></path><path d="M238.1 108L274.1 194L313.4 103Z" fill="#10161c" stroke="#10161c"></path><path d="M230.1 36L313.4 103L327.4 66Z" fill="#141b24" stroke="#141b24"></path><path d="M230.1 36L238.1 108L313.4 103Z" fill="#2f364f" stroke="#2f364f"></path><path d="M586.6 600L635.9 600L580.6 566Z" fill="#3e415f" stroke="#3e415f"></path><path d="M657.9 543L730.1 556L697.1 480Z" fill="#283146" stroke="#283146"></path><path d="M768.4 242L784.4 182L678.1 186Z" fill="#222c3d" stroke="#222c3d"></path><path d="M842.7 226L784.4 182L768.4 242Z" fill="#141b24" stroke="#141b24"></path><path d="M842.7 226L768.4 242L772.4 285Z" fill="#283146" stroke="#283146"></path><path d="M618.9 0L559.6 63L644.9 74Z" fill="#474668" stroke="#474668"></path><path d="M428 0L369.7 0L378.7 78Z" fill="#363c57" stroke="#363c57"></path><path d="M722.1 0L618.9 0L685.1 65Z" fill="#2f364f" stroke="#2f364f"></path><path d="M685.1 65L618.9 0L644.9 74Z" fill="#504b70" stroke="#504b70"></path><path d="M179.9 469L216.9 519L265.1 506Z" fill="#3e415f" stroke="#3e415f"></path><path d="M265.1 506L259.1 567L337.4 538Z" fill="#2f364f" stroke="#2f364f"></path><path d="M179.9 469L265.1 506L206.9 420Z" fill="#363c57" stroke="#363c57"></path><path d="M216.9 519L259.1 567L265.1 506Z" fill="#222c3d" stroke="#222c3d"></path><path d="M259.1 567L301.4 600L337.4 538Z" fill="#1d2635" stroke="#1d2635"></path><path d="M700.1 600L730.1 556L657.9 543Z" fill="#1d2635" stroke="#1d2635"></path><path d="M747.4 464L826.7 417L746.4 435Z" fill="#474668" stroke="#474668"></path><path d="M113.6 419L206.9 420L180.9 368Z" fill="#222c3d" stroke="#222c3d"></path><path d="M113.6 419L179.9 469L206.9 420Z" fill="#3e415f" stroke="#3e415f"></path><path d="M369.7 0L341.4 0L327.4 66Z" fill="#1d2635" stroke="#1d2635"></path><path d="M146.6 218L136.6 291L173.9 268Z" fill="#504b70" stroke="#504b70"></path><path d="M173.9 268L136.6 291L186.9 281Z" fill="#474668" stroke="#474668"></path><path d="M755.4 143L747.4 76L724.1 101Z" fill="#10161c" stroke="#10161c"></path><path d="M724.1 101L747.4 76L685.1 65Z" fill="#1d2635" stroke="#1d2635"></path><path d="M837.7 72L747.4 76L755.4 143Z" fill="#283146" stroke="#283146"></path><path d="M730.1 556L752.4 545L697.1 480Z" fill="#2f364f" stroke="#2f364f"></path><path d="M207.9 152L146.6 218L243.1 219Z" fill="#18212c" stroke="#18212c"></path><path d="M148.6 179L146.6 218L207.9 152Z" fill="#18212c" stroke="#18212c"></path><path d="M825.7 492L826.7 417L747.4 464Z" fill="#363c57" stroke="#363c57"></path><path d="M775.4 373L842.7 347L772.4 285Z" fill="#1d2635" stroke="#1d2635"></path><path d="M826.7 417L842.7 347L775.4 373Z" fill="#504b70" stroke="#504b70"></path><path d="M784.4 182L829.7 151L755.4 143Z" fill="#283146" stroke="#283146"></path><path d="M730.1 556L765.4 600L752.4 545Z" fill="#3e415f" stroke="#3e415f"></path><path d="M635.9 600L700.1 600L657.9 543Z" fill="#141b24" stroke="#141b24"></path><path d="M207.9 33L171.9 133L238.1 108Z" fill="#283146" stroke="#283146"></path><path d="M238.1 108L171.9 133L207.9 152Z" fill="#3e415f" stroke="#3e415f"></path><path d="M171.9 133L148.6 179L207.9 152Z" fill="#222c3d" stroke="#222c3d"></path><path d="M65.3 384L110.6 358L43.3 304Z" fill="#504b70" stroke="#504b70"></path><path d="M859.7 299L842.7 226L772.4 285Z" fill="#10161c" stroke="#10161c"></path><path d="M164.9 600L259.1 567L216.9 519Z" fill="#283146" stroke="#283146"></path><path d="M164.9 600L258.1 600L259.1 567Z" fill="#474668" stroke="#474668"></path><path d="M259.1 567L258.1 600L301.4 600Z" fill="#474668" stroke="#474668"></path><path d="M900 324L859.7 299L842.7 347Z" fill="#3e415f" stroke="#3e415f"></path><path d="M842.7 347L859.7 299L772.4 285Z" fill="#2f364f" stroke="#2f364f"></path><path d="M252.1 0L230.1 36L327.4 66Z" fill="#18212c" stroke="#18212c"></path><path d="M845.7 140L829.7 151L900 181Z" fill="#474668" stroke="#474668"></path><path d="M842.7 226L829.7 151L784.4 182Z" fill="#283146" stroke="#283146"></path><path d="M110.6 358L136.6 291L43.3 304Z" fill="#18212c" stroke="#18212c"></path><path d="M136.6 291L110.6 358L180.9 368Z" fill="#10161c" stroke="#10161c"></path><path d="M179.9 469L129.6 520L216.9 519Z" fill="#222c3d" stroke="#222c3d"></path><path d="M752.4 545L825.7 492L747.4 464Z" fill="#18212c" stroke="#18212c"></path><path d="M900 365L900 324L842.7 347Z" fill="#474668" stroke="#474668"></path><path d="M811.7 550L825.7 492L752.4 545Z" fill="#141b24" stroke="#141b24"></path><path d="M110.6 358L113.6 419L180.9 368Z" fill="#1d2635" stroke="#1d2635"></path><path d="M341.4 0L252.1 0L327.4 66Z" fill="#283146" stroke="#283146"></path><path d="M757.4 0L722.1 0L747.4 76Z" fill="#3e415f" stroke="#3e415f"></path><path d="M747.4 76L722.1 0L685.1 65Z" fill="#2f364f" stroke="#2f364f"></path><path d="M207.9 0L207.9 33L230.1 36Z" fill="#3e415f" stroke="#3e415f"></path><path d="M230.1 36L207.9 33L238.1 108Z" fill="#504b70" stroke="#504b70"></path><path d="M171.9 133L139.6 114L148.6 179Z" fill="#2f364f" stroke="#2f364f"></path><path d="M900 181L829.7 151L842.7 226Z" fill="#2f364f" stroke="#2f364f"></path><path d="M829.7 151L837.7 72L755.4 143Z" fill="#141b24" stroke="#141b24"></path><path d="M207.9 33L139.6 114L171.9 133Z" fill="#3e415f" stroke="#3e415f"></path><path d="M148.6 179L63.3 244L146.6 218Z" fill="#1d2635" stroke="#1d2635"></path><path d="M700.1 600L765.4 600L730.1 556Z" fill="#504b70" stroke="#504b70"></path><path d="M113.6 419L123.6 482L179.9 469Z" fill="#283146" stroke="#283146"></path><path d="M765.4 600L811.7 550L752.4 545Z" fill="#18212c" stroke="#18212c"></path><path d="M900 365L842.7 347L900 391Z" fill="#1d2635" stroke="#1d2635"></path><path d="M859.7 299L900 215L842.7 226Z" fill="#283146" stroke="#283146"></path><path d="M842.7 347L826.7 417L900 391Z" fill="#283146" stroke="#283146"></path><path d="M65.3 502L129.6 520L123.6 482Z" fill="#504b70" stroke="#504b70"></path><path d="M123.6 482L129.6 520L179.9 469Z" fill="#10161c" stroke="#10161c"></path><path d="M837.7 72L757.4 0L747.4 76Z" fill="#2f364f" stroke="#2f364f"></path><path d="M900 391L826.7 417L900 496Z" fill="#1d2635" stroke="#1d2635"></path><path d="M252.1 0L207.9 0L230.1 36Z" fill="#10161c" stroke="#10161c"></path><path d="M207.9 33L125.6 83L139.6 114Z" fill="#18212c" stroke="#18212c"></path><path d="M900 496L826.7 417L825.7 492Z" fill="#18212c" stroke="#18212c"></path><path d="M900 324L900 215L859.7 299Z" fill="#363c57" stroke="#363c57"></path><path d="M845.7 140L837.7 72L829.7 151Z" fill="#222c3d" stroke="#222c3d"></path><path d="M900 143L837.7 72L845.7 140Z" fill="#1d2635" stroke="#1d2635"></path><path d="M110.6 358L65.3 384L113.6 419Z" fill="#283146" stroke="#283146"></path><path d="M36.3 447L65.3 502L123.6 482Z" fill="#504b70" stroke="#504b70"></path><path d="M63.3 244L136.6 291L146.6 218Z" fill="#504b70" stroke="#504b70"></path><path d="M123.6 0L125.6 83L207.9 33Z" fill="#1d2635" stroke="#1d2635"></path><path d="M44.3 165L63.3 244L148.6 179Z" fill="#3e415f" stroke="#3e415f"></path><path d="M70.3 140L148.6 179L139.6 114Z" fill="#363c57" stroke="#363c57"></path><path d="M154.6 600L164.9 600L129.6 520Z" fill="#141b24" stroke="#141b24"></path><path d="M129.6 520L164.9 600L216.9 519Z" fill="#474668" stroke="#474668"></path><path d="M900 215L900 181L842.7 226Z" fill="#2f364f" stroke="#2f364f"></path><path d="M765.4 600L818.7 600L811.7 550Z" fill="#363c57" stroke="#363c57"></path><path d="M900 548L900 496L825.7 492Z" fill="#10161c" stroke="#10161c"></path><path d="M77.3 600L154.6 600L129.6 520Z" fill="#18212c" stroke="#18212c"></path><path d="M63.3 244L43.3 304L136.6 291Z" fill="#3e415f" stroke="#3e415f"></path><path d="M900 181L900 143L845.7 140Z" fill="#3e415f" stroke="#3e415f"></path><path d="M125.6 83L70.3 140L139.6 114Z" fill="#18212c" stroke="#18212c"></path><path d="M63.3 244L0 273L43.3 304Z" fill="#141b24" stroke="#141b24"></path><path d="M900 548L825.7 492L811.7 550Z" fill="#141b24" stroke="#141b24"></path><path d="M837.7 72L826.7 0L757.4 0Z" fill="#504b70" stroke="#504b70"></path><path d="M900 60L826.7 0L837.7 72Z" fill="#222c3d" stroke="#222c3d"></path><path d="M36.3 447L123.6 482L113.6 419Z" fill="#2f364f" stroke="#2f364f"></path><path d="M36.3 447L113.6 419L65.3 384Z" fill="#283146" stroke="#283146"></path><path d="M70.3 140L44.3 165L148.6 179Z" fill="#10161c" stroke="#10161c"></path><path d="M0 97L44.3 165L70.3 140Z" fill="#2f364f" stroke="#2f364f"></path><path d="M0 374L65.3 384L43.3 304Z" fill="#10161c" stroke="#10161c"></path><path d="M0 434L36.3 447L65.3 384Z" fill="#2f364f" stroke="#2f364f"></path><path d="M818.7 600L900 548L811.7 550Z" fill="#18212c" stroke="#18212c"></path><path d="M207.9 0L123.6 0L207.9 33Z" fill="#2f364f" stroke="#2f364f"></path><path d="M125.6 83L66.3 67L70.3 140Z" fill="#141b24" stroke="#141b24"></path><path d="M900 143L900 60L837.7 72Z" fill="#18212c" stroke="#18212c"></path><path d="M123.6 0L66.3 67L125.6 83Z" fill="#10161c" stroke="#10161c"></path><path d="M0 261L63.3 244L0 188Z" fill="#3e415f" stroke="#3e415f"></path><path d="M0 261L0 273L63.3 244Z" fill="#10161c" stroke="#10161c"></path><path d="M0 188L63.3 244L44.3 165Z" fill="#2f364f" stroke="#2f364f"></path><path d="M0 273L0 374L43.3 304Z" fill="#10161c" stroke="#10161c"></path><path d="M0 495L49.3 535L65.3 502Z" fill="#18212c" stroke="#18212c"></path><path d="M65.3 502L49.3 535L129.6 520Z" fill="#3e415f" stroke="#3e415f"></path><path d="M0 495L65.3 502L36.3 447Z" fill="#283146" stroke="#283146"></path><path d="M49.3 535L77.3 600L129.6 520Z" fill="#283146" stroke="#283146"></path><path d="M0 374L0 434L65.3 384Z" fill="#283146" stroke="#283146"></path><path d="M49.3 535L0 600L77.3 600Z" fill="#18212c" stroke="#18212c"></path><path d="M0 97L0 188L44.3 165Z" fill="#18212c" stroke="#18212c"></path><path d="M818.7 600L900 600L900 548Z" fill="#10161c" stroke="#10161c"></path><path d="M900 60L900 0L826.7 0Z" fill="#504b70" stroke="#504b70"></path><path d="M0 434L0 495L36.3 447Z" fill="#18212c" stroke="#18212c"></path><path d="M66.3 67L0 97L70.3 140Z" fill="#1d2635" stroke="#1d2635"></path><path d="M0 66L0 97L66.3 67Z" fill="#18212c" stroke="#18212c"></path><path d="M0 495L0 543L49.3 535Z" fill="#504b70" stroke="#504b70"></path><path d="M36.3 0L0 66L66.3 67Z" fill="#10161c" stroke="#10161c"></path><path d="M123.6 0L36.3 0L66.3 67Z" fill="#283146" stroke="#283146"></path><path d="M0 543L0 600L49.3 535Z" fill="#18212c" stroke="#18212c"></path><path d="M36.3 0L0 0L0 66Z" fill="#222c3d" stroke="#222c3d"></path></g></svg>